<?xml version="1.0" encoding="UTF-8" standalone="no"?><!DOCTYPE svg PUBLIC "-//W3C//DTD SVG 1.1//EN" "http://www.w3.org/Graphics/SVG/1.1/DTD/svg11.dtd"><svg width="100%" height="100%" viewBox="0 0 555 360" version="1.1" xmlns="http://www.w3.org/2000/svg" xmlns:xlink="http://www.w3.org/1999/xlink" xml:space="preserve" xmlns:serif="http://www.serif.com/" style="fill-rule:evenodd;clip-rule:evenodd;stroke-linecap:square;stroke-linejoin:round;stroke-miterlimit:1.5;"><rect id="ArtBoard4" x="0" y="0" width="554.877" height="359.555" style="fill:none;"/><g id="_-fretty.app-" serif:id="(fretty.app)" transform="matrix(1,0,0,1,22.5507,-106.481)"><g transform="matrix(106.065,0,0,106.065,-8.13349,422.202)"><path d="M0.457,-0.602c-0.005,-0.003 -0.012,-0.005 -0.02,-0.007c-0.007,-0.001 -0.015,-0.002 -0.023,-0.002c-0.023,0 -0.04,0.007 -0.049,0.02c-0.009,0.014 -0.016,0.032 -0.02,0.053l-0.002,0.012l0.111,0l-0.028,0.161l-0.108,0l-0.065,0.365l-0.223,0l0.065,-0.365l-0.09,0l0.028,-0.161l0.087,0l0.003,-0.016c0.006,-0.033 0.015,-0.064 0.026,-0.093c0.011,-0.029 0.026,-0.055 0.047,-0.078c0.02,-0.022 0.046,-0.04 0.078,-0.053c0.032,-0.013 0.072,-0.019 0.119,-0.019c0.015,0 0.033,0.001 0.052,0.003c0.019,0.003 0.035,0.007 0.048,0.012l-0.036,0.168Z" style="fill-rule:nonzero;"/></g><g transform="matrix(106.065,0,0,106.065,36.2018,422.202)"><path d="M0.069,-0.423c0.003,-0.013 0.005,-0.029 0.008,-0.049c0.003,-0.02 0.006,-0.038 0.007,-0.054l0.215,0c0,0.003 0,0.008 -0.001,0.013c-0.001,0.005 -0.002,0.011 -0.003,0.018l-0.005,0.033l0.003,0c0.015,-0.021 0.034,-0.039 0.056,-0.053c0.022,-0.015 0.048,-0.022 0.078,-0.022c0.018,0 0.032,0.002 0.042,0.005l-0.042,0.19c-0.007,-0.002 -0.014,-0.003 -0.023,-0.004c-0.009,-0.001 -0.017,-0.001 -0.024,-0.001c-0.035,0 -0.062,0.009 -0.081,0.028c-0.019,0.018 -0.031,0.039 -0.036,0.064l-0.045,0.255l-0.224,0l0.075,-0.423Z" style="fill-rule:nonzero;"/></g><g transform="matrix(106.065,0,0,106.065,81.5977,422.202)"><path d="M0.215,-0.211c-0.001,0.002 -0.001,0.004 -0.001,0.007c0,0.011 0.003,0.02 0.009,0.027c0.006,0.008 0.013,0.013 0.022,0.017c0.009,0.005 0.018,0.008 0.028,0.009c0.01,0.002 0.019,0.003 0.027,0.003c0.017,0 0.033,-0.003 0.049,-0.009c0.016,-0.005 0.03,-0.014 0.043,-0.026l0.151,0.104c-0.035,0.035 -0.074,0.06 -0.119,0.074c-0.045,0.014 -0.091,0.021 -0.139,0.021c-0.037,0 -0.073,-0.005 -0.107,-0.015c-0.033,-0.01 -0.063,-0.025 -0.088,-0.045c-0.025,-0.02 -0.044,-0.045 -0.059,-0.075c-0.015,-0.029 -0.022,-0.064 -0.022,-0.104c0,-0.045 0.008,-0.087 0.024,-0.126c0.016,-0.039 0.038,-0.072 0.067,-0.101c0.029,-0.029 0.064,-0.051 0.104,-0.068c0.041,-0.016 0.085,-0.024 0.134,-0.024c0.039,0 0.073,0.005 0.104,0.017c0.031,0.011 0.057,0.026 0.078,0.046c0.021,0.021 0.038,0.046 0.049,0.075c0.012,0.029 0.018,0.061 0.018,0.097c0,0.015 -0.001,0.031 -0.004,0.048c-0.002,0.017 -0.005,0.033 -0.01,0.048l-0.358,0Zm0.177,-0.119c0.001,-0.002 0.001,-0.004 0.001,-0.006l0,-0.006c0,-0.017 -0.006,-0.03 -0.019,-0.04c-0.012,-0.01 -0.029,-0.015 -0.051,-0.015c-0.014,0 -0.027,0.002 -0.038,0.007c-0.011,0.005 -0.02,0.01 -0.028,0.017c-0.008,0.007 -0.015,0.014 -0.02,0.022c-0.005,0.007 -0.008,0.014 -0.01,0.021l0.165,0Z" style="fill-rule:nonzero;"/></g><g transform="matrix(106.065,0,0,106.065,147.57,422.202)"><path d="M0.291,-0.365l-0.027,0.148c-0.001,0.004 -0.001,0.009 -0.001,0.014c-0.001,0.005 -0.001,0.01 -0.001,0.013c0,0.015 0.004,0.025 0.012,0.03c0.007,0.005 0.018,0.008 0.032,0.008c0.008,0 0.016,-0.001 0.024,-0.002c0.008,-0.001 0.015,-0.003 0.02,-0.004l-0.027,0.154c-0.009,0.005 -0.024,0.01 -0.046,0.013c-0.022,0.003 -0.043,0.005 -0.064,0.005c-0.022,0 -0.044,-0.002 -0.065,-0.006c-0.021,-0.004 -0.04,-0.011 -0.057,-0.021c-0.017,-0.01 -0.03,-0.024 -0.04,-0.041c-0.011,-0.017 -0.016,-0.04 -0.016,-0.067c0,-0.007 0.001,-0.016 0.002,-0.025c0.001,-0.009 0.002,-0.018 0.003,-0.026l0.035,-0.193l-0.078,0l0.028,-0.161l0.074,0l0.021,-0.119l0.217,0l-0.021,0.119l0.101,0l-0.028,0.161l-0.098,0Z" style="fill-rule:nonzero;"/></g><g transform="matrix(106.065,0,0,106.065,191.375,422.202)"><path d="M0.291,-0.365l-0.027,0.148c-0.001,0.004 -0.001,0.009 -0.001,0.014c-0.001,0.005 -0.001,0.01 -0.001,0.013c0,0.015 0.004,0.025 0.012,0.03c0.007,0.005 0.018,0.008 0.032,0.008c0.008,0 0.016,-0.001 0.024,-0.002c0.008,-0.001 0.015,-0.003 0.02,-0.004l-0.027,0.154c-0.009,0.005 -0.024,0.01 -0.046,0.013c-0.022,0.003 -0.043,0.005 -0.064,0.005c-0.022,0 -0.044,-0.002 -0.065,-0.006c-0.021,-0.004 -0.04,-0.011 -0.057,-0.021c-0.017,-0.01 -0.03,-0.024 -0.04,-0.041c-0.011,-0.017 -0.016,-0.04 -0.016,-0.067c0,-0.007 0.001,-0.016 0.002,-0.025c0.001,-0.009 0.002,-0.018 0.003,-0.026l0.035,-0.193l-0.078,0l0.028,-0.161l0.074,0l0.021,-0.119l0.217,0l-0.021,0.119l0.101,0l-0.028,0.161l-0.098,0Z" style="fill-rule:nonzero;"/></g><g transform="matrix(106.065,0,0,106.065,233.908,422.202)"><path d="M0.15,-0.007l-0.126,-0.519l0.248,0l0.032,0.288l0.004,0l0.123,-0.288l0.24,0l-0.305,0.558c-0.018,0.033 -0.036,0.063 -0.054,0.088c-0.017,0.026 -0.037,0.048 -0.059,0.065c-0.022,0.018 -0.047,0.032 -0.076,0.041c-0.028,0.009 -0.061,0.014 -0.1,0.014c-0.024,0 -0.046,-0.002 -0.066,-0.005c-0.02,-0.003 -0.036,-0.007 -0.049,-0.011l0.038,-0.177c0.008,0.003 0.016,0.006 0.025,0.008c0.009,0.003 0.018,0.004 0.028,0.004c0.025,0 0.044,-0.005 0.057,-0.016c0.014,-0.01 0.025,-0.023 0.034,-0.039l0.006,-0.011Z" style="fill-rule:nonzero;"/></g><g transform="matrix(106.065,0,0,106.065,294.471,422.202)"><path d="M0.203,-0.094c0,0.014 -0.003,0.027 -0.008,0.039c-0.005,0.012 -0.011,0.023 -0.02,0.032c-0.009,0.009 -0.019,0.017 -0.032,0.022c-0.012,0.005 -0.025,0.008 -0.039,0.008c-0.027,0 -0.05,-0.008 -0.067,-0.024c-0.017,-0.015 -0.025,-0.036 -0.025,-0.061c0,-0.029 0.01,-0.054 0.029,-0.073c0.019,-0.019 0.043,-0.029 0.072,-0.029c0.026,0 0.047,0.008 0.064,0.024c0.017,0.017 0.026,0.037 0.026,0.062Z" style="fill-rule:nonzero;"/></g><g transform="matrix(106.065,0,0,106.065,320.987,422.202)"><path d="M0.503,-0.352c0,0.009 0,0.019 -0.001,0.03c-0.001,0.011 -0.003,0.021 -0.005,0.031l-0.034,0.194c-0.003,0.017 -0.006,0.035 -0.007,0.053c-0.002,0.018 -0.003,0.033 -0.003,0.044l-0.142,0c0,-0.007 0,-0.016 0.001,-0.026c0.001,-0.009 0.002,-0.018 0.003,-0.027l-0.002,0c-0.037,0.043 -0.087,0.065 -0.152,0.065c-0.017,0 -0.035,-0.002 -0.053,-0.007c-0.019,-0.004 -0.035,-0.011 -0.05,-0.022c-0.015,-0.01 -0.028,-0.024 -0.037,-0.041c-0.009,-0.017 -0.014,-0.037 -0.014,-0.062c0,-0.04 0.01,-0.073 0.03,-0.098c0.02,-0.025 0.046,-0.045 0.079,-0.059c0.032,-0.014 0.069,-0.024 0.11,-0.029c0.041,-0.005 0.082,-0.008 0.123,-0.008c0.001,-0.006 0.002,-0.011 0.002,-0.014l0,-0.009c0,-0.019 -0.007,-0.034 -0.02,-0.043c-0.014,-0.009 -0.033,-0.013 -0.058,-0.013c-0.023,0 -0.045,0.004 -0.068,0.013c-0.023,0.009 -0.044,0.02 -0.063,0.034l-0.066,-0.092c0.03,-0.024 0.065,-0.043 0.104,-0.056c0.039,-0.013 0.077,-0.019 0.115,-0.019c0.03,0 0.058,0.003 0.083,0.009c0.025,0.007 0.047,0.017 0.066,0.03c0.018,0.013 0.032,0.03 0.043,0.05c0.011,0.02 0.016,0.044 0.016,0.072Zm-0.177,0.134c-0.02,0 -0.04,0.001 -0.061,0.002c-0.021,0.002 -0.039,0.006 -0.056,0.011c-0.016,0.005 -0.029,0.013 -0.04,0.022c-0.011,0.009 -0.016,0.022 -0.016,0.037c0,0.02 0.007,0.033 0.02,0.04c0.014,0.007 0.029,0.011 0.046,0.011c0.031,0 0.056,-0.01 0.077,-0.029c0.021,-0.019 0.034,-0.042 0.039,-0.07l0.005,-0.024l-0.014,0Z" style="fill-rule:nonzero;"/></g><g transform="matrix(106.065,0,0,106.065,380.278,422.202)"><path d="M0.126,0.24l-0.16,0l0.13,-0.738l0.152,0l-0.012,0.069l0.003,0c0.019,-0.025 0.042,-0.045 0.071,-0.059c0.028,-0.015 0.059,-0.022 0.092,-0.022c0.033,0 0.062,0.005 0.088,0.016c0.026,0.011 0.048,0.026 0.066,0.044c0.018,0.019 0.032,0.042 0.041,0.069c0.009,0.026 0.014,0.054 0.014,0.085c0,0.043 -0.007,0.083 -0.021,0.12c-0.013,0.038 -0.032,0.071 -0.057,0.099c-0.025,0.028 -0.054,0.05 -0.088,0.066c-0.033,0.017 -0.07,0.025 -0.11,0.025c-0.037,0 -0.068,-0.007 -0.095,-0.021c-0.027,-0.013 -0.047,-0.032 -0.06,-0.055l-0.002,0l-0.052,0.302Zm0.325,-0.515c0,-0.03 -0.009,-0.055 -0.026,-0.076c-0.017,-0.02 -0.043,-0.03 -0.076,-0.03c-0.02,0 -0.039,0.004 -0.056,0.013c-0.017,0.009 -0.032,0.02 -0.045,0.035c-0.013,0.015 -0.023,0.032 -0.03,0.051c-0.007,0.019 -0.011,0.04 -0.011,0.061c0,0.031 0.009,0.056 0.028,0.075c0.019,0.02 0.044,0.03 0.077,0.03c0.021,0 0.04,-0.004 0.057,-0.013c0.017,-0.008 0.032,-0.019 0.044,-0.034c0.012,-0.014 0.021,-0.031 0.028,-0.05c0.007,-0.019 0.01,-0.04 0.01,-0.062Z" style="fill-rule:nonzero;"/></g><g transform="matrix(106.065,0,0,106.065,449.962,422.202)"><path d="M0.126,0.24l-0.16,0l0.13,-0.738l0.152,0l-0.012,0.069l0.003,0c0.019,-0.025 0.042,-0.045 0.071,-0.059c0.028,-0.015 0.059,-0.022 0.092,-0.022c0.033,0 0.062,0.005 0.088,0.016c0.026,0.011 0.048,0.026 0.066,0.044c0.018,0.019 0.032,0.042 0.041,0.069c0.009,0.026 0.014,0.054 0.014,0.085c0,0.043 -0.007,0.083 -0.021,0.12c-0.013,0.038 -0.032,0.071 -0.057,0.099c-0.025,0.028 -0.054,0.05 -0.088,0.066c-0.033,0.017 -0.07,0.025 -0.11,0.025c-0.037,0 -0.068,-0.007 -0.095,-0.021c-0.027,-0.013 -0.047,-0.032 -0.06,-0.055l-0.002,0l-0.052,0.302Zm0.325,-0.515c0,-0.03 -0.009,-0.055 -0.026,-0.076c-0.017,-0.02 -0.043,-0.03 -0.076,-0.03c-0.02,0 -0.039,0.004 -0.056,0.013c-0.017,0.009 -0.032,0.02 -0.045,0.035c-0.013,0.015 -0.023,0.032 -0.03,0.051c-0.007,0.019 -0.011,0.04 -0.011,0.061c0,0.031 0.009,0.056 0.028,0.075c0.019,0.02 0.044,0.03 0.077,0.03c0.021,0 0.04,-0.004 0.057,-0.013c0.017,-0.008 0.032,-0.019 0.044,-0.034c0.012,-0.014 0.021,-0.031 0.028,-0.05c0.007,-0.019 0.01,-0.04 0.01,-0.062Z" style="fill-rule:nonzero;"/></g></g><path d="M432.872,117.477c0,-25.218 -23.997,-101.091 -49.216,-101.091l-198.919,62.799c-25.219,0 -45.693,20.475 -45.693,45.693l-19.649,61.889c0,25.219 20.474,45.693 45.693,45.693l222.09,0c25.219,0 45.694,-20.474 45.694,-45.693l0,-69.29Z" style="fill:none;"/><clipPath id="_clip1"><path d="M432.872,117.477c0,-25.218 -23.997,-101.091 -49.216,-101.091l-198.919,62.799c-25.219,0 -45.693,20.475 -45.693,45.693l-19.649,61.889c0,25.219 20.474,45.693 45.693,45.693l222.09,0c25.219,0 45.694,-20.474 45.694,-45.693l0,-69.29Z"/></clipPath><g clip-path="url(#_clip1)"><g><path d="M30.592,481.968l742.371,-547.733" style="fill:none;stroke:#000;stroke-width:8px;"/><path d="M-90.033,415.192l742.371,-547.733" style="fill:none;stroke:#000;stroke-width:8px;"/><path d="M-9.616,459.709l742.371,-547.733" style="fill:none;stroke:#000;stroke-width:8px;"/><path d="M-49.825,437.451l742.371,-547.734" style="fill:none;stroke:#000;stroke-width:8px;"/><path d="M-210.658,348.416l742.371,-547.733" style="fill:none;stroke:#000;stroke-width:8px;"/><path d="M-130.242,392.933l742.371,-547.733" style="fill:none;stroke:#000;stroke-width:8px;"/><path d="M-170.45,370.675l742.371,-547.734" style="fill:none;stroke:#000;stroke-width:8px;"/></g></g></svg>